<svg width="25" height="25" viewBox="0 0 25 25" fill="none" xmlns="http://www.w3.org/2000/svg">
<g clip-path="url(#clip0)">
<path d="M24.9991 22.3051C24.9993 22.659 24.9297 23.0094 24.7944 23.3364C24.659 23.6633 24.4606 23.9604 24.2104 24.2107C23.9602 24.4609 23.6631 24.6594 23.3362 24.7948C23.0093 24.9301 22.6588 24.9998 22.305 24.9997H2.6917C2.33787 24.9997 1.9875 24.93 1.66061 24.7945C1.33371 24.6591 1.0367 24.4606 0.786516 24.2104C0.536337 23.9602 0.337896 23.6632 0.202526 23.3363C0.0671555 23.0093 -0.00249268 22.659 -0.00244138 22.3051V2.69575C-0.00223434 1.98125 0.281666 1.29606 0.786859 0.790797C1.29205 0.285531 1.9772 0.00153135 2.6917 0.00122073H22.3011C22.6549 0.0011694 23.0053 0.0708333 23.3322 0.206233C23.6591 0.341632 23.9562 0.540114 24.2064 0.79034C24.4566 1.04057 24.655 1.33763 24.7904 1.66457C24.9257 1.9915 24.9953 2.34191 24.9952 2.69575V22.3051" fill="white"/>
<path d="M21.1094 5.54137C20.9273 5.38576 20.7164 5.26753 20.4887 5.19345C20.2609 5.11936 20.0208 5.09086 19.7821 5.10958C19.5433 5.1283 19.3106 5.19387 19.0972 5.30254C18.8838 5.41121 18.6939 5.56085 18.5383 5.74293L10.6867 14.9285L6.46212 11.4011C6.12279 11.118 5.68498 10.9811 5.24481 11.0205C4.80464 11.0599 4.39811 11.2724 4.11446 11.6113C3.97433 11.779 3.86863 11.9727 3.80338 12.1812C3.73814 12.3898 3.71465 12.6092 3.73423 12.8269C3.75382 13.0445 3.81612 13.2562 3.91755 13.4498C4.01899 13.6434 4.15758 13.815 4.3254 13.955L9.98634 18.6816C10.161 18.8272 10.3638 18.9353 10.5821 18.9991C10.8004 19.0629 11.0295 19.081 11.2551 19.0523C11.4942 19.0339 11.7274 18.9685 11.9411 18.8597C12.1549 18.751 12.3451 18.6011 12.5008 18.4187L21.3109 8.11129C21.6251 7.74365 21.7803 7.26629 21.7425 6.78419C21.7047 6.3021 21.477 5.85477 21.1094 5.54058" fill="#00CD69"/>
</g>
<defs>
<clipPath id="clip0">
<rect width="25" height="25" fill="white"/>
</clipPath>
</defs>
</svg>
